<?xml version="1.0" standalone="no"?><!DOCTYPE svg PUBLIC "-//W3C//DTD SVG 1.1//EN" "http://www.w3.org/Graphics/SVG/1.1/DTD/svg11.dtd"><svg class="icon" width="48px" height="48.00px" viewBox="0 0 1024 1024" version="1.1" xmlns="http://www.w3.org/2000/svg"><path fill="#333333" d="M315 297c29.6 0 53.7 24.1 53.7 53.7s-24.1 53.7-53.7 53.7-53.7-24.1-53.7-53.7S285.4 297 315 297m0-35.8c-49.5 0-89.6 40.1-89.6 89.6 0 49.5 40.1 89.6 89.6 89.6 49.5 0 89.6-40.1 89.6-89.6 0-49.5-40.1-89.6-89.6-89.6zM279.2 753.8c-2.4 0-4.7-0.9-6.5-2.8-3.4-3.6-3.3-9.3 0.3-12.6 65.6-62.3 119.6-109.9 167.4-109.9 49.4 0 80 27.1 107 51.1 23.3 20.7 43.4 38.5 72.1 38.5 14.7 0 65.5-2.4 101.6-33.6 3.7-3.2 9.4-2.9 12.6 0.9 3.2 3.7 2.8 9.4-0.9 12.6-39.7 34.3-92.5 38-113.3 38-35.5 0-60.2-21.9-84-43-25.8-22.9-52.5-46.5-95.1-46.5-41 0-94.5 47.6-155.1 105-1.7 1.5-3.9 2.3-6.1 2.3zM769.7 662c-2.4 0-4.8-1-6.6-2.9-3.4-3.6-3.1-9.3 0.5-12.7l9.6-8.9c8.3-7.6 16.6-15.4 24.9-22.9 3.6-3.4 9.3-3.1 12.6 0.5 3.4 3.7 3.1 9.3-0.5 12.6-8.3 7.6-16.5 15.3-24.8 22.9l-9.6 8.9c-1.7 1.7-3.9 2.5-6.1 2.5z"  /><path fill="#333333" d="M82.1 762.7c-9.9 0-17.9-8-17.9-17.9s8-17.9 17.9-17.9c45.3 0 116.6-67.8 179.6-127.6 69.6-66.1 129.7-123.2 178.7-123.2 53.8 0 85.8 34.1 114.1 64.2 21.8 23.2 40.7 43.3 65 43.3 26.2 0 85-54.5 132.3-98.2 64.8-60 126-116.7 172.3-116.7 9.9 0 17.9 8 17.9 17.9 0 9.9-8 17.9-17.9 17.9-32.2 0-96.4 59.4-147.9 107.2-62.4 57.8-116.4 107.8-156.6 107.8-39.8 0-65.9-27.7-91.1-54.6-25.6-27.2-49.7-52.9-88-52.9-34.7 0-98.1 60.2-154 113.4C212 696 141.7 762.7 82.1 762.7z"  /><path fill="#333333" d="M870.3 888.1H153.8c-49.4 0-89.6-40.2-89.6-89.6V225.4c0-49.4 40.2-89.6 89.6-89.6h716.5c49.4 0 89.6 40.2 89.6 89.6v573.2c0 49.4-40.2 89.5-89.6 89.5zM153.8 171.6c-29.6 0-53.7 24.1-53.7 53.7v573.2c0 29.6 24.1 53.7 53.7 53.7h716.5c29.6 0 53.7-24.1 53.7-53.7V225.4c0-29.6-24.1-53.7-53.7-53.7H153.8z"  /></svg>